<svg width="36" height="36" viewBox="0 0 36 36" fill="none" xmlns="http://www.w3.org/2000/svg">
<path d="M2.79592 0.209288C1.26838 -0.554438 -0.425034 0.898442 0.0970039 2.5249L3.77185 13.9461C3.84409 14.1706 3.97672 14.3709 4.15519 14.5251C4.33367 14.6793 4.55113 14.7815 4.78378 14.8204L20.045 17.3648C20.7612 17.4844 20.7612 18.513 20.045 18.6326L4.78506 21.1758C4.55219 21.2144 4.33446 21.3165 4.15573 21.4707C3.97701 21.6249 3.8442 21.8254 3.77185 22.0501L0.0970039 33.4751C-0.42632 35.1016 1.26709 36.5544 2.79592 35.7907L34.9334 19.7255C36.3555 19.0144 36.3555 16.9868 34.9334 16.2745L2.79592 0.209288Z" fill="#828282"/>
</svg>
