<svg width="211" height="213" viewBox="0 0 211 213" fill="none" xmlns="http://www.w3.org/2000/svg">
<mask id="path-1-outside-1_100_2" maskUnits="userSpaceOnUse" x="-2.00001" y="33" width="215" height="173" fill="black">
<rect fill="white" x="-2.00001" y="33" width="215" height="173"/>
<path d="M105.029 203.793C95.3613 203.793 86.0351 202.523 77.0508 199.984C68.1641 197.543 59.8144 194.027 52.0019 189.437C44.2871 184.848 37.207 179.379 30.7617 173.031C24.4141 166.684 18.9453 159.604 14.3555 151.791C9.76562 143.979 6.20117 135.58 3.6621 126.596C1.2207 117.709 -4.04032e-06 108.432 -3.61771e-06 98.7637L-8.51604e-07 35.4824L210.059 35.4824L210.059 98.7637C210.059 108.432 208.789 117.709 206.25 126.596C203.809 135.58 200.293 143.979 195.703 151.791C191.113 159.604 185.596 166.684 179.15 173.031C172.803 179.379 165.723 184.848 157.91 189.438C150.195 194.027 141.846 197.543 132.861 199.984C123.975 202.523 114.697 203.793 105.029 203.793ZM105.029 161.752C113.721 161.752 121.875 160.092 129.492 156.771C137.109 153.549 143.75 149.057 149.414 143.295C155.176 137.631 159.717 130.941 163.037 123.227C166.357 115.609 168.018 107.455 168.018 98.7637L168.018 77.8164L42.041 77.8164L42.041 98.7637C42.041 107.455 43.6523 115.609 46.875 123.227C50.1953 130.941 54.6875 137.631 60.3516 143.295C66.1133 149.057 72.8027 153.549 80.4199 156.771C88.1348 160.092 96.3379 161.752 105.029 161.752Z"/>
</mask>
<g filter="url(#filter0_i_100_2)">
<path d="M105.029 203.793C95.3613 203.793 86.0351 202.523 77.0508 199.984C68.1641 197.543 59.8144 194.027 52.0019 189.437C44.2871 184.848 37.207 179.379 30.7617 173.031C24.4141 166.684 18.9453 159.604 14.3555 151.791C9.76562 143.979 6.20117 135.58 3.6621 126.596C1.2207 117.709 -4.04032e-06 108.432 -3.61771e-06 98.7637L-8.51604e-07 35.4824L210.059 35.4824L210.059 98.7637C210.059 108.432 208.789 117.709 206.25 126.596C203.809 135.58 200.293 143.979 195.703 151.791C191.113 159.604 185.596 166.684 179.15 173.031C172.803 179.379 165.723 184.848 157.91 189.438C150.195 194.027 141.846 197.543 132.861 199.984C123.975 202.523 114.697 203.793 105.029 203.793ZM105.029 161.752C113.721 161.752 121.875 160.092 129.492 156.771C137.109 153.549 143.75 149.057 149.414 143.295C155.176 137.631 159.717 130.941 163.037 123.227C166.357 115.609 168.018 107.455 168.018 98.7637L168.018 77.8164L42.041 77.8164L42.041 98.7637C42.041 107.455 43.6523 115.609 46.875 123.227C50.1953 130.941 54.6875 137.631 60.3516 143.295C66.1133 149.057 72.8027 153.549 80.4199 156.771C88.1348 160.092 96.3379 161.752 105.029 161.752Z" fill="url(#paint0_linear_100_2)"/>
</g>
<path d="M77.0508 199.984L77.5947 198.06L77.5876 198.058L77.5806 198.056L77.0508 199.984ZM52.0019 189.437L50.9793 191.156L50.9888 191.162L52.0019 189.437ZM30.7617 173.031L29.3475 174.445L29.3529 174.451L29.3583 174.456L30.7617 173.031ZM3.6621 126.596L1.73356 127.126L1.7355 127.133L1.73748 127.14L3.6621 126.596ZM-8.51604e-07 35.4824L-7.64181e-07 33.4824L-2 33.4824L-2 35.4824L-8.51604e-07 35.4824ZM210.059 35.4824L212.059 35.4824L212.059 33.4824L210.059 33.4824L210.059 35.4824ZM206.25 126.596L204.327 126.046L204.323 126.059L204.32 126.071L206.25 126.596ZM179.15 173.031L177.747 171.606L177.742 171.612L177.736 171.617L179.15 173.031ZM157.91 189.438L156.897 187.713L156.888 187.719L157.91 189.438ZM132.861 199.984L132.337 198.054L132.324 198.058L132.312 198.061L132.861 199.984ZM129.492 156.771L128.713 154.93L128.703 154.934L128.693 154.938L129.492 156.771ZM149.414 143.295L148.012 141.869L148 141.881L147.988 141.893L149.414 143.295ZM163.037 123.227L161.204 122.427L161.2 122.436L163.037 123.227ZM168.018 77.8164L170.018 77.8164L170.018 75.8164L168.018 75.8164L168.018 77.8164ZM42.041 77.8164L42.041 75.8164L40.041 75.8164L40.041 77.8164L42.041 77.8164ZM46.875 123.227L45.033 124.006L45.0379 124.017L46.875 123.227ZM80.4199 156.771L81.2106 154.934L81.1992 154.93L80.4199 156.771ZM105.029 201.793C95.5387 201.793 86.3959 200.547 77.5947 198.06L76.5069 201.909C85.6744 204.5 95.184 205.793 105.029 205.793L105.029 201.793ZM77.5806 198.056C68.8603 195.66 60.6735 192.212 53.015 187.713L50.9888 191.162C58.9554 195.842 67.4678 199.426 76.521 201.913L77.5806 198.056ZM53.0245 187.719C45.4491 183.212 38.4966 177.842 32.1651 171.606L29.3583 174.456C35.9174 180.916 43.1252 186.484 50.9794 191.156L53.0245 187.719ZM32.1759 171.617C25.9494 165.391 20.5846 158.445 16.0799 150.778L12.631 152.804C17.306 160.762 22.8787 167.977 29.3475 174.445L32.1759 171.617ZM16.0799 150.778C11.5791 143.117 8.08077 134.877 5.58673 126.052L1.73748 127.14C4.32157 136.283 7.95211 144.84 12.631 152.804L16.0799 150.778ZM5.59065 126.066C3.19894 117.36 2 108.261 2 98.7637L-2 98.7637C-2 108.602 -0.757542 118.058 1.73356 127.126L5.59065 126.066ZM2 98.7637L2 35.4824L-2 35.4824L-2 98.7637L2 98.7637ZM-9.39026e-07 37.4824L210.059 37.4824L210.059 33.4824L-7.64181e-07 33.4824L-9.39026e-07 37.4824ZM208.059 35.4824L208.059 98.7637L212.059 98.7637L212.059 35.4824L208.059 35.4824ZM208.059 98.7637C208.059 108.254 206.813 117.346 204.327 126.046L208.173 127.145C210.765 118.072 212.059 108.609 212.059 98.7637L208.059 98.7637ZM204.32 126.071C201.924 134.889 198.476 143.123 193.979 150.778L197.428 152.804C202.11 144.834 205.693 136.271 208.18 127.12L204.32 126.071ZM193.979 150.778C189.477 158.44 184.068 165.382 177.747 171.606L180.554 174.456C187.124 167.986 192.749 160.767 197.428 152.804L193.979 150.778ZM177.736 171.617C171.51 177.844 164.565 183.208 156.897 187.713L158.923 191.162C166.881 186.487 174.096 180.914 180.565 174.445L177.736 171.617ZM156.888 187.719C149.334 192.212 141.153 195.659 132.337 198.054L133.386 201.914C142.538 199.427 151.056 195.842 158.933 191.156L156.888 187.719ZM132.312 198.061C123.612 200.547 114.52 201.793 105.029 201.793L105.029 205.793C114.875 205.793 124.337 204.5 133.411 201.907L132.312 198.061ZM105.029 163.752C113.983 163.752 122.41 162.04 130.291 158.605L128.693 154.938C121.339 158.143 113.459 159.752 105.029 159.752L105.029 163.752ZM130.271 158.613C138.125 155.291 144.987 150.651 150.84 144.697L147.988 141.893C142.513 147.462 136.093 151.807 128.713 154.93L130.271 158.613ZM150.816 144.721C156.77 138.868 161.456 131.961 164.874 124.017L161.2 122.436C157.978 129.922 153.582 136.393 148.012 141.869L150.816 144.721ZM164.87 124.026C168.306 116.145 170.018 107.717 170.018 98.7637L166.018 98.7637C166.018 107.193 164.409 115.074 161.204 122.427L164.87 124.026ZM170.018 98.7637L170.018 77.8164L166.018 77.8164L166.018 98.7637L170.018 98.7637ZM168.018 75.8164L42.041 75.8164L42.041 79.8164L168.018 79.8164L168.018 75.8164ZM40.041 77.8164L40.041 98.7637L44.041 98.7637L44.041 77.8164L40.041 77.8164ZM40.041 98.7637C40.041 107.709 41.7008 116.13 45.0331 124.006L48.7169 122.447C45.6039 115.089 44.041 107.201 44.041 98.7637L40.041 98.7637ZM45.0379 124.017C48.4535 131.953 53.0855 138.857 58.9373 144.709L61.7658 141.881C56.2895 136.404 51.9372 129.929 48.7121 122.436L45.0379 124.017ZM58.9373 144.709C64.884 150.656 71.7899 155.292 79.6406 158.613L81.1992 154.93C73.8156 151.806 67.3426 147.458 61.7658 141.881L58.9373 144.709ZM79.6293 158.609C87.6026 162.04 96.0757 163.752 105.029 163.752L105.029 159.752C96.6001 159.752 88.6669 158.143 81.2106 154.934L79.6293 158.609Z" fill="#2E3148" mask="url(#path-1-outside-1_100_2)"/>
<g filter="url(#filter1_d_100_2)">
<mask id="path-3-outside-2_100_2" maskUnits="userSpaceOnUse" x="23" y="-1" width="164" height="159" fill="black">
<rect fill="white" x="23" y="-1" width="164" height="159"/>
<path d="M84.7656 157L25 0.115234H70.5566L104.834 97.9668L138.965 0.115234H184.668L124.902 157H84.7656Z"/>
</mask>
<path d="M84.7656 157L25 0.115234H70.5566L104.834 97.9668L138.965 0.115234H184.668L124.902 157H84.7656Z" fill="url(#paint1_linear_100_2)"/>
<path d="M84.7656 157L83.8311 157.356L84.0765 158H84.7656V157ZM25 0.115234V-0.884766H23.5489L24.0655 0.47123L25 0.115234ZM70.5566 0.115234L71.5004 -0.215366L71.2659 -0.884766H70.5566V0.115234ZM104.834 97.9668L103.89 98.2974L104.836 100.997L105.778 98.2961L104.834 97.9668ZM138.965 0.115234V-0.884766H138.255L138.021 -0.214108L138.965 0.115234ZM184.668 0.115234L185.602 0.47123L186.119 -0.884766H184.668V0.115234ZM124.902 157V158H125.591L125.837 157.356L124.902 157ZM85.7001 156.644L25.9345 -0.240761L24.0655 0.47123L83.8311 157.356L85.7001 156.644ZM25 1.11523H70.5566V-0.884766H25V1.11523ZM69.6129 0.445835L103.89 98.2974L105.778 97.6362L71.5004 -0.215366L69.6129 0.445835ZM105.778 98.2961L139.909 0.444576L138.021 -0.214108L103.89 97.6375L105.778 98.2961ZM138.965 1.11523H184.668V-0.884766H138.965V1.11523ZM183.733 -0.240761L123.968 156.644L125.837 157.356L185.602 0.47123L183.733 -0.240761ZM124.902 156H84.7656V158H124.902V156Z" fill="white" mask="url(#path-3-outside-2_100_2)"/>
</g>
<defs>
<filter id="filter0_i_100_2" x="0" y="35.4824" width="210.059" height="172.311" filterUnits="userSpaceOnUse" color-interpolation-filters="sRGB">
<feFlood flood-opacity="0" result="BackgroundImageFix"/>
<feBlend mode="normal" in="SourceGraphic" in2="BackgroundImageFix" result="shape"/>
<feColorMatrix in="SourceAlpha" type="matrix" values="0 0 0 0 0 0 0 0 0 0 0 0 0 0 0 0 0 0 127 0" result="hardAlpha"/>
<feOffset dy="4"/>
<feGaussianBlur stdDeviation="2"/>
<feComposite in2="hardAlpha" operator="arithmetic" k2="-1" k3="1"/>
<feColorMatrix type="matrix" values="0 0 0 0 0 0 0 0 0 0 0 0 0 0 0 0 0 0 0.25 0"/>
<feBlend mode="normal" in2="shape" result="effect1_innerShadow_100_2"/>
</filter>
<filter id="filter1_d_100_2" x="20" y="0.115234" width="185.668" height="184.885" filterUnits="userSpaceOnUse" color-interpolation-filters="sRGB">
<feFlood flood-opacity="0" result="BackgroundImageFix"/>
<feColorMatrix in="SourceAlpha" type="matrix" values="0 0 0 0 0 0 0 0 0 0 0 0 0 0 0 0 0 0 127 0" result="hardAlpha"/>
<feOffset dx="8" dy="15"/>
<feGaussianBlur stdDeviation="6.5"/>
<feComposite in2="hardAlpha" operator="out"/>
<feColorMatrix type="matrix" values="0 0 0 0 0 0 0 0 0 0 0 0 0 0 0 0 0 0 0.25 0"/>
<feBlend mode="normal" in2="BackgroundImageFix" result="effect1_dropShadow_100_2"/>
<feBlend mode="normal" in="SourceGraphic" in2="effect1_dropShadow_100_2" result="shape"/>
</filter>
<linearGradient id="paint0_linear_100_2" x1="109" y1="16" x2="183" y2="175.5" gradientUnits="userSpaceOnUse">
<stop stop-color="#CDCACA"/>
<stop offset="1" stop-color="#3A3A3A"/>
</linearGradient>
<linearGradient id="paint1_linear_100_2" x1="185" y1="94" x2="105" y2="36" gradientUnits="userSpaceOnUse">
<stop stop-color="#2E3148"/>
<stop offset="1" stop-color="#6F76AE"/>
</linearGradient>
</defs>
</svg>
