<svg width="1524" height="1013" viewBox="0 0 1524 1013" fill="none" xmlns="http://www.w3.org/2000/svg">
<path opacity="0.1" d="M1769.03 258.209C1763.51 257.691 1761.76 260.532 1761.98 264.893C1762.09 267.063 1762.72 269.615 1763.59 272.278C1763.81 272.939 1764.06 273.614 1764.28 274.294L1764.65 275.306L1764.84 275.812C1764.87 275.987 1764.7 276 1764.66 276.089C1764 276.702 1763.31 277.321 1762.68 277.909C1757.46 282.703 1753.09 286.947 1754.47 289.671C1750.89 282.414 1747.76 275.088 1745.1 267.771L1744.12 265.028L1742.81 262.19L1740.29 256.474C1738.69 252.646 1737.21 248.835 1735.88 245.017C1734.31 251.562 1725.99 253.672 1715.62 254.094C1704.73 254.358 1692.05 252.724 1684.97 254.226C1685.64 246.651 1691.76 244.252 1699.66 243.514C1707.6 242.789 1717.46 243.653 1726.31 243.169C1727.4 243.114 1728.51 243.035 1729.56 242.928C1730.55 242.812 1731.53 242.658 1732.49 242.49C1734.42 242.149 1736.24 241.707 1737.92 241.114C1741.33 239.936 1744.21 238.24 1746.4 235.734C1748.6 233.228 1750.06 229.961 1750.75 225.662C1751.17 223.547 1751.05 221.056 1750.8 218.311C1750.54 215.546 1750.05 212.485 1749.38 209.078C1750.17 204.738 1749.12 200.159 1746.76 195.435C1744.13 190.626 1740.32 185.669 1736.1 180.75L1734.49 178.916L1733.67 177.992L1733.26 177.53L1733.05 177.312C1733.05 177.312 1733.07 177.268 1732.99 177.303L1732.58 177.444L1731.8 177.72L1730.2 178.278C1713.13 184.169 1696.03 190.066 1678.99 195.952C1644.54 207.879 1610.41 219.721 1577.45 231.131C1560.68 236.962 1544.24 242.669 1528.21 248.255C1520.12 251.083 1512.13 253.87 1504.25 256.597C1500.3 257.982 1496.37 259.342 1492.47 260.697C1490.52 261.385 1488.57 262.052 1486.62 262.74L1485.89 262.985L1485.54 263.115C1485.54 263.115 1485.62 263.06 1485.61 263.021L1486.21 262.54L1487.41 261.598C1500.01 251.543 1511.73 242.203 1522.19 233.879C1510.09 243.393 1499.86 251.532 1491.32 258.41C1490.28 259.261 1489.23 260.112 1488.21 260.938C1487.71 261.339 1487.21 261.758 1486.71 262.159L1485.99 262.745L1485.61 263.04C1485.61 263.04 1485.56 263.09 1485.69 263.024L1485.94 262.935L1486.42 262.759C1491.54 260.962 1496.43 259.229 1501.14 257.573C1510.58 254.237 1519.24 251.177 1527.09 248.417C1558.71 237.232 1578.54 230.09 1589.31 226.027C1610.87 217.94 1596.6 222.051 1568.75 230.639C1561.77 232.805 1553.97 235.233 1545.52 237.851C1543.42 238.508 1541.29 239.17 1539.11 239.843C1538.02 240.18 1536.93 240.516 1535.84 240.872L1534.18 241.382C1533.93 241.451 1533.55 241.587 1533.41 241.614L1534.1 241.136C1537.75 238.645 1541.52 236.087 1545.38 233.474C1560.52 223.136 1576.11 212.369 1591.1 201.981C1605.44 191.981 1619.94 181.872 1633.44 172.442C1639.83 167.981 1645.98 163.667 1651.8 159.598C1652.51 159.095 1653.23 158.612 1653.91 158.115L1654.95 157.385C1655.25 157.164 1655.8 156.836 1655.67 156.8C1655.8 156.432 1655.96 156.04 1656.09 155.691C1656.38 154.97 1656.65 154.254 1656.92 153.596C1648.81 149.148 1641.73 142.765 1635.57 135.918C1630.49 129.562 1625.98 122.589 1621.39 116.036C1617.7 110.269 1613.78 104.79 1608.68 100.228C1606.05 97.7708 1603.56 96.3121 1600.49 94.8282C1597.45 93.3775 1593.98 92.2141 1589.97 91.3793C1592.59 90.4382 1594.78 88.8168 1596.46 86.7747C1597.3 85.744 1598.01 84.6386 1598.61 83.4335C1598.9 82.8338 1599.15 82.2202 1599.37 81.5927C1599.62 81.0621 1599.83 80.5369 1600.01 79.9785C1600.74 77.8032 1600.92 75.4947 1600.53 73.2191C1600.3 72.0965 1599.99 70.9517 1599.49 69.8648C1598.99 68.8166 1598.37 67.5914 1597.56 66.8666L1582.4 66.1849C1587.49 58.5216 1591.17 60.0446 1595.75 62.6989C1598.01 64.0413 1600.49 65.7045 1603.31 66.7957C1606.14 67.8232 1609.33 68.5607 1613.02 67.4489C1613.52 64.8946 1611.56 62.0042 1608.4 58.7287C1607.6 57.9402 1606.78 56.9776 1605.8 56.2858C1604.82 55.5746 1603.81 54.8496 1602.76 54.1107C1600.61 52.6053 1598.4 51.0528 1596.11 49.4533C1594.97 48.6729 1593.86 47.746 1592.68 47.0347C1591.53 46.3566 1590.36 45.6647 1589.17 44.9534C1586.87 43.5584 1584.7 42.1166 1582.8 40.6639L1581.39 39.5737C1580.92 39.2443 1580.44 38.9786 1580 38.6825C1579.1 38.0958 1578.27 37.5174 1577.52 36.9612C1576.05 35.8046 1574.93 34.6786 1574.25 33.5861C1574.9 34.6841 1575.28 35.735 1575.42 36.7332C1575.49 37.2419 1575.47 37.7285 1575.42 38.2206C1575.39 38.4694 1575.34 38.6988 1575.28 38.9531C1575.19 39.2323 1575.08 39.5751 1574.97 39.8598C1574.46 41.1063 1573.74 42.2947 1572.85 43.4774C1571.91 44.7293 1570.93 45.6271 1569.48 47.2602C1568.1 48.7412 1566.59 50.1861 1564.94 51.6393C1564.13 52.3631 1563.29 53.0925 1562.42 53.808C1561.54 54.5235 1560.69 55.1948 1559.7 56.1756C1555.93 59.7977 1551.9 63.392 1547.97 66.9836C1540.58 57.8663 1532.63 53.0643 1523.76 52.265C1519.36 51.6871 1514.8 51.7643 1510.06 52.3418C1507.66 52.6748 1505.29 52.9636 1502.8 53.6974C1500.3 54.3925 1497.75 55.2396 1495.16 56.1945C1489.98 58.1043 1484.61 60.4951 1479.08 63.118C1476.33 64.4267 1473.53 65.8045 1470.71 67.2071L1469.66 67.7373L1468.6 68.4084L1466.47 69.7562C1465.03 70.6649 1463.61 71.568 1462.2 72.4518C1456.48 76.0561 1450.74 79.6271 1445.08 82.7974C1442.24 84.3853 1439.44 85.8653 1436.69 87.1934C1435.21 87.8891 1433.86 88.5186 1432.58 89.0929C1431.27 89.7942 1429.95 90.4376 1428.65 91.0173C1429.28 88.9608 1430.15 87.6232 1430.95 86.1363C1431.76 84.6688 1432.58 83.2399 1433.37 81.8166C1434.98 79.0031 1436.59 76.3113 1438.23 73.7357C1439.04 72.4478 1439.87 71.1987 1440.66 69.9551C1441.06 69.3333 1441.49 68.7253 1441.89 68.1229C1442.28 67.4817 1442.71 67.1364 1443.13 66.6113C1444.75 64.7407 1446.39 62.9474 1448.05 61.2122C1451.33 57.7668 1454.63 54.5203 1457.92 51.5753C1461.08 49.2411 1464.26 47.0618 1467.44 44.9655C1469.03 43.9269 1470.62 42.8884 1472.18 41.8748L1474.54 40.3613C1475.32 39.8669 1476.04 39.5826 1476.77 39.1766C1479.63 37.7049 1482.53 36.2276 1485.52 34.709C1486.91 33.9717 1488.35 33.204 1489.79 32.4364C1491.21 31.6742 1492.4 31.2575 1493.69 30.6391C1496.22 29.4961 1498.64 28.2923 1500.93 26.9943C1500.42 26.7341 1499.92 26.4297 1499.38 26.1943C1498.79 25.9893 1498.26 25.7733 1497.7 25.5822C1496.58 25.1806 1495.43 24.8038 1494.26 24.452C1491.95 23.7233 1489.56 23.0693 1487.1 22.4705C1482.2 21.2674 1477.12 20.302 1471.93 19.5577C1461.57 18.0691 1450.74 17.4565 1440.55 17.4416C1435.45 17.4438 1430.5 17.5789 1425.92 17.8219C1423.63 17.9532 1421.4 18.0927 1419.29 18.2683C1417.21 18.419 1415.04 18.8876 1413.11 19.1904C1405.31 20.612 1399.75 22.2147 1398.54 23.259C1401.33 21.4001 1404.42 19.6023 1407.69 17.8681C1408.55 17.3766 1409.23 17.1614 1410.01 16.866L1412.3 16.0105C1413.84 15.4447 1415.41 14.9121 1417.01 14.374C1423.53 12.0587 1429.38 11.4653 1434.73 11.1508C1445.35 10.6988 1453.32 12.3987 1456.22 13.5756C1438.16 10.3706 1423.77 8.8932 1410.65 7.34748C1397.24 5.99787 1385.12 4.4528 1366.37 4.16137C1351.16 0.131561 1351.45 0.455222 1357.4 1.1088C1360.28 1.60556 1364.65 2.2277 1369.13 2.91074C1373.54 3.68773 1378.15 4.4455 1381.53 5.18313C1379.6 4.05663 1379.31 3.47031 1389.19 4.81486C1387.81 4.5845 1387.62 4.76407 1388.47 4.99687C1389.38 5.17993 1391.17 5.73127 1393.8 6.1947C1399.14 7.12989 1407.45 8.584 1417.03 9.92561C1427.64 11.4476 1436.4 12.7112 1446.91 14.2304C1451.74 14.9441 1456.34 15.6437 1460.41 16.3072C1464.45 17.0148 1467.98 17.7055 1470.68 18.357C1463.22 18.5457 1455.65 19.3204 1447.96 20.3992C1440.23 21.5664 1432.39 23.057 1424.32 24.6747C1408.15 27.7745 1391.43 31.3246 1373.45 29.4301L1413.63 32.0606C1411.11 37.4668 1404.08 38.958 1395.91 38.7647C1387.72 38.6349 1378.24 37.0722 1370.71 37.6756C1381.54 40.7625 1398.15 41.318 1410.31 43.6787C1416.4 44.9074 1421.33 46.5473 1423.78 49.3192C1426.25 52.1104 1426.18 56.0059 1422.69 62.368C1408.31 61.2307 1399.45 62.0599 1393.45 64.0908C1387.52 66.1688 1384.47 69.4485 1381.68 73.0575C1376 80.1951 1371.54 88.6799 1344.64 89.3177C1342.5 97.4032 1348.73 103.291 1353.59 108.948C1356.19 111.872 1358.44 114.746 1359.36 118.064C1360.57 121.443 1360.21 125.175 1357.87 129.882C1349.6 135.744 1341.26 137.635 1333.52 136.692C1329.66 136.228 1325.93 135.056 1322.44 133.354C1318.95 131.651 1316 129.46 1313.26 126.903C1311.91 125.622 1310.63 124.267 1309.45 122.87C1308.31 121.467 1307.39 120.04 1306.49 118.569C1304.81 115.662 1303.33 112.537 1302.77 109.711C1301.55 104.017 1302.28 98.7649 1305.69 95.9582C1306.68 92.7462 1308.03 90.5076 1309.29 88.8302C1310.58 87.1667 1311.95 86.1916 1313.32 85.6589C1316.07 84.6129 1318.82 85.375 1321.34 86.5461C1326.51 88.9824 1330.88 93.0854 1332.83 88.2954C1331.04 80.8847 1329.57 73.7148 1328.31 66.9238C1318.83 72.5411 1307.69 81.7847 1296.5 90.0329C1285.23 98.176 1274.11 105.144 1262.29 104.083C1264.02 117.358 1271.94 111.325 1280.23 105.944C1288.49 100.467 1297.13 95.701 1299.52 109.369C1296.22 112.314 1293.4 115.486 1290.37 118.58C1287.37 121.708 1284.34 124.841 1281.63 128.113C1282.72 131.7 1284.17 134.208 1285.9 135.937C1287.72 137.669 1289.82 138.622 1292.02 139.071C1296.43 139.969 1301.36 138.892 1306.05 138.145C1310.74 137.399 1315.19 136.96 1318.63 138.975C1320.36 139.98 1321.75 141.595 1322.91 144.062C1324.18 146.545 1325.14 149.916 1325.74 154.404C1319.74 149.133 1316.57 148.896 1314.62 151.776C1313.69 153.207 1312.88 155.399 1312.48 158.072C1312.08 160.746 1311.81 163.897 1311.46 167.245C1310.23 180.623 1309.75 197.089 1290.74 200.008C1302.68 197.906 1309.8 200.982 1314.64 206.581C1317.13 209.367 1319.06 212.807 1320.71 216.604C1322.49 220.374 1323.97 224.486 1325.46 228.656C1327.1 232.818 1328.64 236.958 1330.56 240.943C1332.61 245.023 1334.85 248.884 1337.5 252.04C1342.85 258.021 1349.77 261.661 1359.78 260.042L1360.62 249.639L1361.12 244.43L1361.7 239.025C1355.47 242.491 1349.3 246.004 1343.12 249.58C1341.83 247.019 1340.39 244.569 1338.88 242.193C1338.1 241.001 1337.31 239.828 1336.56 238.65C1335.82 237.529 1335.05 236.415 1334.31 235.314C1331.3 230.922 1328.11 226.645 1325.51 222.17C1320.08 213.27 1316.54 203.591 1318.57 191.784C1329 198.531 1338.64 194.772 1348.1 191.635C1357.59 188.428 1366.73 185.896 1376.42 193.171C1381.02 196.563 1384.05 199.283 1386.02 201.488C1388.02 203.668 1388.82 205.38 1388.68 206.734C1388.4 209.424 1384.52 210.716 1379.43 211.32C1369.32 212.577 1354.5 210.843 1355.44 213.232C1358.28 215.003 1361.05 216.747 1363.91 218.454L1372.63 223.448C1378.32 226.645 1384.59 230.071 1390.56 233.213C1392.48 229.173 1394.44 225.184 1396.44 221.249C1398.54 217.374 1400.78 213.612 1403.02 209.851C1404.98 212.017 1406.88 214.297 1408.71 216.689C1410.64 219.123 1412.63 221.726 1414.52 224.39C1416.34 226.987 1418.23 229.67 1420.16 232.406C1421.93 235.072 1423.77 237.805 1425.63 240.596C1427.35 243.312 1429.12 246.1 1430.92 248.902C1432.47 251.491 1434.06 254.093 1435.66 256.754C1436.33 257.949 1437 259.163 1437.67 260.377C1438.28 261.525 1438.89 262.692 1439.49 263.84L1441.19 267.324L1442.66 270.673C1441.93 272.829 1441.25 274.795 1440.48 276.436C1439.67 278.045 1438.84 279.455 1438.02 280.684C1436.36 283.124 1434.74 284.893 1433.01 286.119C1429.58 288.528 1426.24 289.17 1422.83 289.624C1419.37 290.006 1415.85 290.2 1412.21 291.845C1410.4 292.665 1408.55 293.856 1406.65 295.621C1404.69 297.276 1402.63 299.453 1400.47 302.275C1403.85 302.973 1406.75 302.862 1409.58 302.825C1412.37 302.755 1414.91 302.574 1417.09 302.606C1419.27 302.677 1420.91 302.755 1422.12 303.461C1422.71 303.807 1423.17 304.258 1423.5 304.897C1423.86 305.549 1423.83 306.119 1423.74 306.981C1429.75 303.56 1427.27 302.121 1423.75 301.59C1422.02 301.368 1419.73 301.037 1418.04 300.707C1416.33 300.363 1415.1 299.901 1415.19 299C1421.81 295.457 1426.47 294.312 1430.11 294.417C1431.95 294.476 1433.53 294.848 1434.97 295.407C1435.69 295.687 1436.42 296.005 1437.09 296.354C1437.73 296.65 1438.35 296.972 1438.96 297.293C1440.19 297.954 1441.45 298.63 1442.84 299.219C1444.09 299.696 1445.53 300.075 1447.22 300.284C1448.94 300.468 1450.93 300.474 1453.36 300.155C1455.72 299.789 1458.57 299.125 1461.98 298.068C1451.9 303.743 1439.8 306.077 1427.27 308.134C1430.85 309.275 1433.35 310.471 1434.07 311.033C1434.27 311.174 1434.39 311.351 1434.45 311.52C1434.48 311.655 1434.3 311.65 1434.14 311.721L1434 311.749L1433.93 311.785L1433.87 311.796L1434.49 311.713C1436.29 311.438 1438.06 311.188 1439.84 310.976C1442.65 310.522 1445.06 310.144 1447.66 309.811C1450.2 309.49 1452.73 309.231 1455.17 309.028L1456.06 308.954L1456.68 308.872L1457.92 308.726C1458.77 308.638 1459.6 308.556 1460.39 308.479C1462.04 308.333 1463.64 308.238 1465.22 308.167C1466 308.134 1466.74 308.107 1467.46 308.085C1467.92 308.055 1468.38 308.025 1468.83 307.995C1470.64 307.899 1472.34 307.884 1473.88 307.902C1474.23 307.913 1474.58 307.924 1474.93 307.916C1475.1 307.902 1475.24 307.913 1475.39 307.905C1475.7 307.903 1475.99 307.906 1476.26 307.914L1477.54 307.962L1503.25 309.773C1503.78 309.809 1504.19 309.848 1504.84 309.921C1505.61 309.99 1506.41 310.074 1507.19 310.201C1508.67 310.371 1509.93 310.585 1511.36 310.823C1512.82 311.037 1514.07 311.334 1515.36 311.581C1517.9 312.105 1519.97 312.62 1521.58 313.025C1524.76 313.904 1525.97 314.269 1525.84 314.233C1525.72 314.178 1524.24 313.765 1522.1 313.164C1519.9 312.573 1517.04 311.891 1514.25 311.359C1512.95 311.073 1511.54 310.848 1510.35 310.662C1509.23 310.46 1508.17 310.329 1507.25 310.21C1505.79 309.996 1504.47 309.915 1504.32 309.884C1504.17 309.873 1504.14 309.859 1504.26 309.895C1504.41 309.906 1504.76 309.937 1505.32 310.007C1506.6 310.176 1509.16 310.355 1515.39 311.595C1520.49 312.637 1526.22 314.22 1530.99 315.99C1535.83 317.768 1539.72 319.714 1542.37 321.402C1542.99 321.781 1543.67 322.29 1544.18 322.633C1544.67 322.957 1545.12 323.311 1545.57 323.685C1546.02 324.059 1546.25 324.214 1546.58 324.532C1546.83 324.783 1547.08 325.016 1547.3 325.254C1547.48 325.42 1547.63 325.611 1547.78 325.801C1547.86 325.907 1547.97 326.006 1548.05 326.111C1548.12 326.197 1548.17 326.308 1548.24 326.374L1548.25 326.393C1547.51 325.293 1549.9 328.863 1546.6 323.923L1546.61 323.962L1546.68 324.029L1546.79 324.167L1546.65 323.995L1546.64 323.957L1546.61 323.943C1545.12 321.722 1548.62 326.963 1548.25 326.413L1548.21 326.322L1548 326.039L1547.7 325.677C1547.55 325.506 1547.41 325.353 1547.26 325.201L1546.65 324.598C1546.4 324.385 1546.16 324.172 1545.92 323.978C1545.36 323.505 1544.63 322.905 1543.94 322.479C1544.73 322.966 1545.46 323.585 1545.92 323.978C1546.36 324.313 1546.72 324.664 1547.05 325.021C1547.47 325.381 1547.94 325.992 1548.05 326.111L1548.21 326.322L1548.22 326.399C1544.92 321.44 1547.31 325.03 1546.57 323.929L1546.61 323.962L1546.72 324.1C1546.88 324.311 1547.05 324.56 1547.21 324.93C1547.23 325.027 1547.27 325.118 1547.32 325.229C1547.34 325.306 1547.31 325.171 1547.31 325.171C1547.3 325.113 1547.29 325.055 1547.28 325.016L1547.27 324.977L1547.22 324.726C1547.12 324.325 1547.07 323.932 1547.02 323.539C1546.99 323.404 1547.02 323.277 1547.03 323.136L1547.05 322.951L1546.98 322.602C1546.97 322.121 1546.97 321.698 1546.99 321.333C1547.01 320.584 1547.08 320.028 1547.15 319.55C1547.26 319.207 1547.27 318.4 1547.33 317.947C1547.4 317.43 1547.46 316.996 1547.54 316.537C1547.63 316.078 1547.73 315.594 1547.88 315.022C1547.97 314.743 1548.05 314.425 1548.16 314.082C1548.21 313.891 1548.27 313.759 1548.34 313.524C1548.4 313.269 1548.46 312.976 1548.52 312.703C1548.81 311.539 1549.2 310.135 1549.85 308.438C1550.03 308.02 1550.2 307.583 1550.39 307.102C1550.49 306.881 1550.59 306.641 1550.72 306.395C1550.83 306.091 1550.94 305.767 1551.05 305.463C1551.52 304.145 1552.1 302.721 1552.81 301.193C1553.26 300.22 1553.74 299.28 1554.23 298.399L1554.59 297.724L1554.78 297.385L1554.82 297.296C1565.09 277.081 1575.36 256.867 1585.64 236.691L1585.73 236.572C1586.02 236.274 1586.28 235.981 1586.54 235.688C1587.66 234.461 1588.73 233.303 1589.73 232.201C1590.25 231.615 1590.77 231.049 1591.27 230.507L1591.65 230.09C1591.63 229.954 1591.43 229.833 1591.34 229.689C1591.12 229.432 1590.86 229.161 1590.64 228.903C1589.74 227.874 1588.9 226.853 1588.15 225.855C1585.14 221.905 1583.45 218.158 1582.75 214.776C1581.34 207.974 1584.08 202.344 1589.11 197.487C1594.14 192.61 1601.51 188.495 1609.24 184.411C1613.12 182.357 1617.06 180.33 1620.78 178.207C1621.25 177.933 1621.71 177.66 1622.18 177.406C1622.53 177.257 1622.36 177.149 1622.4 177.021L1622.38 176.643C1622.36 176.104 1622.34 175.584 1622.33 175.083C1622.33 174.038 1622.4 172.938 1622.55 171.782C1624.28 170.575 1625.93 169.404 1627.5 168.269L1627.8 168.048C1627.8 168.048 1627.68 167.91 1627.65 167.857L1627.31 167.461C1627.08 167.204 1626.89 166.941 1626.66 166.704C1626.25 166.203 1625.89 165.691 1625.53 165.199C1624.12 163.204 1623.11 161.332 1622.47 159.568C1621.22 156.014 1621.44 152.854 1622.63 150.124C1625.04 144.618 1631.54 140.738 1638.23 137.966C1639.89 137.276 1641.59 136.658 1643.21 136.095C1644.03 135.813 1644.81 135.557 1645.6 135.3C1645.99 135.184 1646.36 135.049 1646.75 134.933C1646.88 134.867 1647.24 134.815 1647.18 134.768L1646.94 134.613C1645.64 133.865 1644.48 133.27 1644.04 132.692C1643.61 132.114 1643.93 131.547 1645.59 130.857C1646.42 130.512 1647.53 130.131 1649.07 129.707C1649.46 129.61 1649.84 129.494 1650.28 129.387C1650.47 129.348 1650.36 129.331 1650.21 129.32L1649.88 129.265C1649.64 129.231 1649.4 129.198 1649.16 129.145C1648.18 128.998 1647.07 128.834 1645.85 128.654L1647.2 131.243L1647.89 132.534C1647.93 132.747 1648.21 132.955 1648.14 133.19L1647.2 133.877L1639.9 139.385L1642.66 139.725L1644 139.902L1644.17 139.927L1644.26 139.911L1644.15 139.952L1643.62 140.057L1642.52 140.194L1633.87 141.524C1628.12 142.441 1622.45 143.342 1616.86 144.347C1605.69 146.294 1594.8 148.411 1584.33 150.682C1591.37 163.872 1596.6 168.951 1600.86 170.121C1605.08 171.276 1608.31 168.444 1610.66 165.264C1615.38 158.839 1616.96 150.985 1617.44 169.976L1623.63 173.619L1624.39 174.073L1623.51 174.589L1621.77 175.617L1618.3 177.652L1614.82 179.687L1614.61 179.809L1554.86 297.349L1554.79 297.443L1554.58 297.846L1554.13 298.639L1553.29 300.253C1552.76 301.345 1552.28 302.445 1551.8 303.545L1551.15 305.223C1550.94 305.767 1550.75 306.409 1550.56 306.787C1550.71 306.517 1550.9 305.997 1551.11 305.331C1551.36 304.678 1551.65 303.938 1552 303.084C1552.36 302.249 1552.78 301.301 1553.27 300.298C1571.18 265.156 1590.59 227.081 1611.28 186.503C1613.16 185.948 1615.34 185.095 1617.72 184.082L1618.62 183.682C1618.93 183.621 1618.6 183.566 1618.44 183.497L1617.86 183.33C1617.09 183.1 1616.31 182.851 1615.51 182.607C1613.96 182.089 1612.35 181.563 1610.75 181.037C1597.91 176.596 1584.15 170.37 1573.89 168.679C1567.41 167.566 1562.38 168.301 1559.39 171.91C1561.73 165.735 1568.84 155.618 1581.27 152.737C1587.95 151.094 1596.32 151.729 1606.23 156.146C1606.6 142.253 1606.69 128.075 1606.41 113.649C1604.63 112.232 1602.75 111.216 1600.85 110.527C1593.65 107.948 1585.99 109.624 1579.93 109.858C1576.92 109.972 1574.28 109.688 1572.26 108.258C1570.25 106.866 1568.86 104.346 1568.26 99.8972C1567.32 97.7705 1566.66 95.749 1566.27 94.0568C1565.9 92.4613 1565.78 90.9765 1565.87 89.5693C1566.07 86.7743 1567.1 84.3392 1568.61 82.1699C1569.37 81.0728 1570.24 80.0559 1571.21 79.0806C1572.17 78.0859 1573.17 77.1632 1574.25 76.4865C1576.4 75.0171 1578.6 73.7163 1580.51 72.4126C1584.3 69.7913 1586.87 67.0918 1584.62 62.6281C1584.06 61.5136 1583.21 60.2938 1581.98 58.9272C1580.75 57.3809 1579.24 56.4731 1577.3 55.3079C1573.43 53.0161 1567.97 50.4359 1560.44 47.5004C1544.11 41.7419 1531.13 40.2073 1520.49 40.8832C1509.83 41.5647 1501.49 44.4623 1494 47.5539C1478.9 53.7399 1467.31 60.7188 1446.07 52.5518C1449.35 61.5172 1460.13 63.3075 1473.31 67.7783C1465.11 71.9754 1466.75 78.0478 1467.13 83.4642C1467.53 88.875 1466.71 93.663 1454.81 95.234C1450.72 81.7228 1437.29 72.5324 1420.6 65.7175C1412.26 62.3198 1403.14 59.4993 1393.99 57.0245C1384.91 54.7377 1375.37 51.7179 1367.87 51.9757C1372.01 45.9678 1369.14 39.3942 1366.25 33.6721C1363.38 27.9638 1360.6 23.0021 1365.84 19.4721C1349.01 22.0379 1333.18 26.1747 1326.43 36.4828C1335.22 38.363 1340.55 40.2852 1343.5 42.0538C1346.46 43.8224 1347.03 45.3987 1346.05 46.8606C1344.05 49.7705 1335.77 52.1124 1326.83 54.9073C1322.43 56.2398 1317.75 57.8514 1313.8 59.4357C1309.77 61.1196 1306.44 62.8648 1304.55 64.7463C1300.65 68.595 1303.06 72.4424 1316.59 77.6102C1303.61 77.5437 1292.43 76.9199 1282.49 75.8296C1272.54 74.72 1263.86 73.2601 1255.77 71.5822C1251.7 70.7584 1247.78 69.8242 1243.91 68.9812L1238.07 67.6641C1236.17 67.2758 1234.23 66.8737 1232.27 66.477C1224.41 64.896 1216.32 63.8015 1207.66 63.6631C1207.78 61.891 1211.16 58.9488 1216.1 55.6785C1218.47 54.0433 1221.41 52.3754 1224.14 50.6879C1227.03 49.0503 1229.83 47.4098 1232.22 45.8714C1237.09 42.8362 1240.3 40.1896 1238.6 38.455C1236.96 36.7481 1230.16 35.9198 1216.32 37.1715C1202.68 46.7895 1199.05 53.4805 1198.11 58.5339C1197.38 63.6067 1199.98 67.1141 1202.91 70.6189C1205.91 74.1265 1209.24 77.6122 1209.94 82.7634C1210.73 87.9174 1208.45 94.684 1202.67 104.96C1207.29 104.346 1212.23 103.711 1217.5 103.111C1222.88 102.529 1228.37 101.905 1234.4 101.516C1237.18 107.946 1234.86 112.589 1230.46 116.396C1225.99 120.156 1219.41 123.027 1213.29 125.464C1200.92 130.366 1189.92 133.107 1188.55 137.782C1181.52 138.067 1184.67 133.38 1187.7 127.311C1190.69 121.208 1193.8 113.834 1184.08 107.873C1173.29 110.069 1167.71 116.966 1162.49 123.208C1159.89 126.317 1157.24 129.315 1154.35 131.254C1151.21 133.345 1147.81 134.338 1143.08 133.807C1145.31 119.769 1145.27 116.197 1145.57 112.597C1145.85 109.061 1146.32 105.589 1150.14 92.8462C1144.06 96.1821 1139.23 98.4045 1135.2 99.8451C1133.22 100.538 1131.57 100.965 1130.11 101.194C1128.61 101.472 1127.37 101.496 1126.33 101.36C1122.18 100.732 1121.41 97.0023 1120.93 92.6531C1120.44 88.2845 1120.29 83.3051 1117.03 80.1291C1113.72 76.9834 1107.52 75.373 1093.41 78.9691C1086.13 85.4587 1087.52 91.4398 1086.98 97.3781C1086.73 100.325 1086.03 103.219 1083.64 106.085C1081.3 108.862 1077 111.986 1069.58 115.183C1076.64 117.969 1081.94 120.601 1086.64 122.567C1091.32 124.558 1095.28 126.007 1099.7 126.22C1108.38 126.795 1119.04 122.633 1136.25 113.053C1137.26 132.022 1125.82 136.839 1109.65 142.715C1105.58 144.244 1101.45 145.604 1097.05 147.52C1092.72 149.342 1088.42 151.319 1084.23 153.959C1082.17 155.252 1080.16 156.636 1078.22 158.125C1076.28 159.697 1074.42 161.412 1072.69 163.241C1070.98 165.09 1069.4 167.052 1067.97 169.224C1066.53 171.44 1065.27 173.823 1064.21 176.366C1070.47 172.33 1074.23 170.561 1076.76 169.578C1079.28 168.595 1080.58 168.419 1081.83 167.992C1083.07 167.545 1084.18 166.882 1086.35 164.984C1087.44 164.025 1088.81 162.749 1090.55 161.016C1092.26 159.309 1094.42 157.212 1097.11 154.548C1106.15 166.315 1113.19 171.742 1117.13 179.068C1119.12 182.716 1120.32 186.844 1120.73 192.454C1121.15 198.064 1120.77 205.098 1119.52 214.84C1128.69 202.667 1131.8 188.113 1137.16 174.964C1137.84 173.32 1138.56 171.689 1139.31 170.072C1140.04 168.499 1140.81 166.96 1141.67 165.443C1143.34 162.458 1145.41 159.493 1147.54 156.959C1151.99 151.775 1157.8 147.527 1164.91 145.115C1173.74 155.779 1168.49 165.969 1162.25 178.749C1159.16 185.092 1155.69 192.154 1154.24 199.703C1152.63 207.383 1153.14 215.528 1157.57 224.165C1155.36 238.319 1144.32 248.61 1129.31 256.569C1125.61 258.507 1121.57 260.454 1117.55 262.074C1113.48 263.763 1109.28 265.339 1105.17 266.675C1101.03 268.099 1096.93 269.332 1093.02 270.327C1089.09 271.386 1085.35 272.266 1081.97 272.855C1077.97 284.83 1072.92 296.007 1067.75 306.783C1065.18 312.04 1062.57 317.322 1059.97 322.603C1058.71 325.166 1057.46 327.728 1056.2 330.29L1056.07 330.536C1056.07 330.536 1056.29 330.895 1056.35 331.064L1057.1 332.242L1058.61 334.579L1060.11 336.917L1060.86 338.076L1061.24 338.645L1061.41 338.933L1086.31 362.366C1087.4 363.357 1088.47 364.372 1089.51 365.393L1092.5 368.381C1099.82 375.784 1104.06 381.14 1106.89 385.327C1109.68 389.482 1110.95 392.388 1111.57 394.235L1111.65 394.623L1111.71 394.65L1111.71 394.67C1127.18 443.723 1090.68 327.871 1094.41 339.684L1094.35 339.394L1093.88 337.033L1092.96 332.349C1091.8 326.182 1090.61 320.041 1089.4 313.944C1088.22 307.983 1087.08 302.035 1085.94 296.145C1085.36 293.242 1084.79 290.358 1084.22 287.474L1083.38 283.196L1082.96 281.067C1082.88 280.981 1082.8 281.139 1082.71 281.156C1080.25 282.91 1077.93 284.796 1075.8 286.888C1071.53 291.052 1067.89 295.896 1065.18 301.52C1055.49 296.72 1043.55 295.321 1032.08 295.458C1020.48 295.622 1009.5 297.312 999.807 298.506C990.119 299.719 981.524 300.454 973.222 299.019C965.036 297.582 957.367 293.93 948.678 287.021C944.472 280.833 939.845 275.735 935.301 271.344C931.003 266.885 926.628 263.205 923.217 259.716C916.244 252.709 911.262 247.278 911.036 239.7C911.617 241.174 911.048 241.81 910.099 242.279C909.317 242.715 908.179 242.961 907.51 243.676C906.344 245.094 906.825 248.257 914.693 259.351C912.286 253.914 917.335 261.001 920.442 262.659C924.65 270.616 928.815 278.501 933.097 286.242C924.824 276.615 923.418 277.698 921.629 277.73C919.912 277.829 917.789 276.901 909.026 265.38C901.649 254.571 903.593 255.474 904.869 255.342C906.133 255.293 906.738 254.107 896.699 239.942C900.503 247.316 901.952 251.715 901.557 253.523C901.138 255.356 898.875 254.597 895.11 252.244C891.345 249.892 886.265 245.869 880.375 241.262C877.508 238.912 874.364 236.477 871.415 233.863C868.307 231.32 865.315 228.634 862.494 225.933C859.338 223.44 855.883 220.021 852.355 216.234C848.827 212.446 845.099 208.377 841.683 204.427C834.8 196.557 828.934 189.29 825.728 187.128C822.953 186.27 820.222 185.342 817.184 184.615C815.693 184.247 814.25 183.828 812.703 183.471L807.962 182.478C800.356 174.61 793.785 165.974 783.168 156.349C776.209 152.919 771.829 153.162 768.983 154.288C765.87 155.668 764.296 157.951 762.006 159.691C751.354 156.027 743.192 152.814 737.436 149.468C731.676 146.102 728.306 142.525 726.581 138.783C723.125 131.261 726.297 123.01 729.071 115.824C732.957 116.885 736.719 118.052 740.537 119.207C744.378 120.338 747.9 121.753 751.601 123.052C753.9 118.433 759.513 117.544 761.437 115.273C762.479 114.101 762.578 112.553 760.936 109.961C759.298 107.389 756.179 103.621 750.226 98.4033C747.359 99.2723 747.543 101.81 748.543 104.67C749.467 107.584 751.235 110.815 751.56 113.043L742.78 107.138C739.85 105.203 736.768 103.379 733.766 101.519C733.341 102.589 732.614 103.598 731.702 104.543C730.737 105.518 729.462 106.535 728.12 107.504C725.487 109.413 722.318 111.388 719.448 113.705C713.808 118.261 710.044 123.813 717.564 130.511C701.384 126.854 688.062 130.033 674.704 133.903C661.313 137.76 647.985 142.368 631.284 142.072C643.348 142.923 645.418 146.657 646.347 151.059C647.276 155.461 647.096 160.546 654.25 164.52C664.668 162.318 675.161 160.644 685.536 159.537C676.188 164.222 665.676 171.652 654.395 178.712C643.036 185.666 631.067 192.319 617.561 194.126C614.561 189.792 612.6 186.901 609.17 184.925C605.74 182.949 600.876 181.92 592.194 181.486C604.419 182.124 599.447 190.932 597.849 199.093C597.036 203.176 596.869 207.01 599.33 209.359C600.546 210.527 602.407 211.305 605.182 211.58C607.958 211.856 611.579 211.582 616.54 210.761C621.146 199.813 629.27 192.01 645.094 186.265C658.518 192.237 659.829 198.273 657.846 204.78C655.799 211.259 650.564 218.591 650.258 226.697C647.838 229.83 645.028 233.765 642.115 238.204C639.265 242.67 636.565 247.75 634.416 253.123C633.929 254.466 633.327 255.812 632.939 257.216L631.796 261.385C631.436 262.784 631.076 264.182 630.716 265.581C630.443 266.983 630.318 268.395 630.132 269.8C629.245 275.406 629.617 280.944 630.226 286.073C628.463 287.548 625.577 287.737 622.396 287.602C619.382 287.434 616.127 286.932 613.317 287.066C610.424 287.216 608.559 287.886 608.002 290.189C607.333 292.514 608.847 296.217 612.797 302.575C617.985 301.589 622.686 303.696 627.503 307.852C629.911 309.93 632.331 312.508 634.793 315.44C636.935 318.074 639.648 321.399 642.668 325.105C648.151 332.046 654.547 339.65 661.272 346.868C664.73 350.447 668.228 353.939 671.709 357.192C673.449 358.819 675.177 360.388 676.974 361.863C677.942 362.657 678.811 363.39 679.601 364.018C681.094 365.13 682.414 366.096 683.501 366.907C678.731 368.253 690.658 379.088 700.401 388.101C710.207 397.143 717.775 404.234 706.031 399.88C703.874 398.195 701.75 396.383 699.702 394.515C697.982 392.844 696.243 391.076 694.457 389.217C690.94 385.488 687.267 381.408 683.433 377.098C675.685 368.514 667.408 359.009 656.825 350.282C647.827 344.158 636.611 337.648 625.495 329.449C619.967 325.353 614.39 320.865 609.561 315.767C607.116 313.213 604.82 310.53 602.723 307.686C600.706 304.807 598.937 301.718 597.424 298.457C595.066 307.753 600.242 313.286 606.637 318.98C613.111 324.638 621.152 330.026 627.254 337.749C625.263 334.563 623.168 331.438 621.396 328.188C625.629 332.318 630.537 334.887 634.691 337.304C638.9 339.709 642.264 342.08 644.275 345.806C647.99 357.561 645.991 360.914 640.103 361.877C637.183 362.334 633.314 362.235 628.997 362.064C624.727 361.842 619.777 361.836 614.575 362.463C621.704 364.995 629.59 370.474 636.296 375.986C639.649 378.742 642.683 381.5 645.093 383.88C647.483 386.303 649.196 388.378 649.946 389.678C643.515 393.163 630.955 386.295 616.883 377.635C609.83 373.298 602.317 368.53 594.659 364.353C586.95 360.206 579.127 356.505 570.896 354.694C582.016 363.938 586.732 370.95 590.65 376.269C594.511 381.74 597.682 385.477 606.04 387.786C607.986 396.009 597.537 386.793 591.252 388.821C601.95 396.661 610.621 403.915 616.934 410.37C623.227 416.868 627.161 422.707 627.979 428.74C622.246 425.51 615.076 421.458 609.955 417.081C607.385 414.914 605.332 412.585 604.176 410.4C603.02 408.215 602.798 406.067 603.866 404.005C602.032 405.997 598.268 406.581 593.269 406.182C588.257 405.867 582.022 404.486 575.287 402.339C561.846 398.039 546.517 390.633 535.723 382.451C536.916 381.169 538.086 379.771 539.275 378.61L542.805 375.096L549.603 368.2C536.89 357.34 534.401 360.266 531.655 365.113C530.299 367.474 528.936 370.097 526.289 371.344C523.654 372.509 519.767 372.615 513.344 369.26C511.895 365.886 511.91 363.771 512.56 361.933C513.217 360.133 514.542 358.785 515.827 357.525C517.111 356.265 518.331 355.119 518.799 353.678C519.286 352.335 519.027 350.737 517.391 348.466C514.069 347.474 511.557 347.066 509.661 347.139C508.716 347.186 507.936 347.34 507.294 347.608C506.664 347.934 506.168 348.354 505.783 348.893C504.317 350.993 504.894 354.64 506.456 358.876C507.227 361.017 508.243 363.229 509.382 365.619C510.563 368.08 511.777 370.555 512.947 372.959C515.315 377.76 517.475 382.24 518.147 385.486C515.679 394.08 507.386 393.71 497.769 390.162C488.16 386.653 477.426 380.088 469.845 376.881C480.693 390.604 490.021 396.643 497.71 398.199C499.642 398.601 501.488 398.719 503.277 398.687C505.072 398.693 506.83 398.506 508.537 398.209C511.918 397.6 515.117 396.505 518.256 395.401C521.395 394.297 524.478 393.204 527.678 392.551C530.869 391.859 534.214 391.941 537.784 392.723C541.362 393.544 545.227 395.233 549.58 398.213C553.904 401.199 558.732 405.413 564.343 411.685C572.706 418.256 578.947 424.785 583.751 431.216C586.143 434.383 588.232 437.772 590.019 441.099C591.834 444.42 593.359 447.739 594.702 451.013C595.373 452.65 595.988 454.299 596.6 455.927C597.192 457.601 597.787 459.293 598.386 461.005C599.521 464.401 600.561 467.755 601.562 471.057C603.449 477.522 605.873 484.504 608.683 490.807C626.492 487.927 640.536 493.957 652.521 503.332C658.522 508.058 663.932 513.605 669.155 519.671C674.43 525.848 679.376 532.412 684.079 538.924C680.93 524.763 691.921 526.772 699.49 527.286C707.079 527.755 710.949 526.688 694.208 506.588L725.428 517.95C726.958 523.922 725.278 529.625 723.575 535.352C721.923 541.19 720.241 547.316 721.757 553.955C712.405 548.525 706.123 549.546 699.7 543.415L712.681 566.451L726.124 589.336L704.719 580.336C706.204 586.961 706.777 593.807 707.076 600.728C707.449 607.734 707.798 614.765 708.138 621.456C708.781 634.945 709.137 647.566 715.208 656.16C712.826 649.391 717.168 643.684 723.591 641.77C730.006 639.817 738.699 641.476 743.702 648.33C749.999 652.655 756.656 658.358 761.201 664.216C765.723 670.1 768.173 676.192 766.722 681.729C763.145 682.376 759.977 683.627 757.152 685.292C754.286 687.046 751.893 688.847 749.737 690.822C749.224 691.306 748.688 691.814 748.152 692.322C747.585 692.676 746.991 693.035 746.396 693.394C745.318 694.09 744.212 694.792 743.107 695.493C740.908 696.813 738.896 698.056 736.862 699.042C734.797 700.014 732.844 700.822 730.854 701.297C728.832 701.757 726.813 701.935 724.696 701.771C720.495 701.456 715.982 699.714 710.022 696.508C710.615 697.457 711.13 698.301 711.731 699.147C712.234 699.933 712.725 700.66 713.241 701.363C714.209 702.599 715.315 703.507 716.197 704.458C718.043 706.326 719.697 707.809 721.429 709.397C723.039 710.949 724.802 712.692 726.099 715.15C727.467 717.675 728.503 721.01 728.033 725.951C729.476 722.125 730.372 718.167 730.619 714.296C735.68 715.447 741.188 717.394 746.705 719.822C752.214 722.212 757.672 725.074 763.104 727.66C768.56 730.221 773.979 732.447 779.779 733.09C785.579 733.732 791.804 732.721 798.256 728.609C796.72 741.765 804.796 748.353 811.604 756.138C814.718 760.027 817.385 764.287 816.335 770.247C815.765 773.216 814.445 776.635 811.428 780.55C809.963 782.51 808.179 784.612 805.779 786.817C803.439 789.03 800.751 791.392 797.292 793.806C789.47 795.817 784.396 794.749 781.726 792.079C779.052 789.39 778.643 785.127 779.089 780.211C779.685 775.326 781.112 769.814 783 764.433C783.914 761.738 785.07 759.095 786.201 756.478C787.46 753.916 788.726 751.393 790.281 749.013C787.807 750.991 784.867 752.659 781.741 754.122C778.742 755.641 775.53 756.96 772.789 758.468C770.052 759.995 767.446 761.597 765.581 763.877C763.488 766.021 762.238 768.923 761.162 772.696C756.327 771.521 754.423 768.921 753.714 765.923C753.069 762.954 753.413 759.426 753.834 756.145C754.093 754.525 754.224 752.849 754.386 751.329C754.517 749.794 754.654 748.44 754.544 747.154C754.392 744.63 753.782 742.86 752.265 742.215C748.929 744.665 747.639 746.046 747.603 747.18C747.567 748.313 748.713 749.133 750.073 750.01C752.683 751.787 756.608 753.926 750.222 760.56C746.458 768.305 740.352 771.383 735.513 771.798C730.438 772.038 726.211 769.837 722.43 766.965C720.533 765.57 718.764 764.09 717.057 762.778C715.304 761.375 713.644 760.155 711.925 759.369C708.393 757.754 705.052 757.691 698.52 760.955C699.928 760.757 701.534 760.681 703.164 761.022C703.974 761.163 704.782 761.446 705.531 761.72C706.276 761.975 707.012 762.332 707.673 762.744C710.235 764.43 712.045 767.29 708.334 771.644C697.715 773.122 690.816 773.803 685.505 775.337C680.262 776.636 676.623 778.724 673.167 780.856C669.69 783.032 666.262 785.601 661.19 787.47C658.656 788.413 655.567 789.327 651.952 789.78C650.118 790.023 648.126 790.195 645.889 790.296C643.699 790.347 641.367 790.266 638.786 790.093C637.72 783.244 639.488 776.819 641.868 770.999C644.351 765.117 647.485 759.75 650.14 754.88C655.565 744.997 658.82 737.313 654.732 730.841C655.921 731.732 657.262 732.512 658.504 733.373L662.523 735.695C664.852 729.18 666.322 724.324 666.905 720.688C667.063 719.732 667.052 719.09 667.091 718.117C667.172 716.915 667.152 715.792 667.057 714.725C666.977 714.177 667.001 713.71 666.806 713.165C666.425 712.557 666.048 711.968 665.647 711.404C664.813 710.261 663.907 709.193 662.901 708.206C642.899 699.271 624.051 692.662 606.687 687.992C589.312 683.264 573.509 680.196 559.224 676.748C544.678 673.008 531.283 669.383 519.007 663.807C523.115 665.991 527.191 668.303 531.293 670.749C529.193 677.4 525.571 677.232 521.693 676.792C517.755 676.345 513.532 675.631 510.002 680.755C511.358 674.151 512.687 667.411 513.854 660.583C506.486 669.423 505.906 678.629 504.897 687.135C503.932 695.714 502.618 703.556 494.636 710.466C495.789 707.221 494.909 704.237 492.988 704.476L492.44 716.773C491.557 711.578 488.85 709.016 485.65 707.618C482.419 706.206 478.694 705.957 475.549 705.131C469.244 703.402 465.502 699.556 471.53 676.923C477.078 682.724 482.107 682.252 487.332 678.523C492.552 674.774 497.789 667.744 503.179 660.463C513.922 646.007 525.434 630.314 539.135 643.533C535.091 640.652 533.857 637.779 534.368 634.801C534.891 631.741 536.918 628.967 539.668 626.19C545.113 620.647 553.455 615.416 555.646 610.397C553.708 603.238 550.346 605.553 547.273 607.428C544.14 609.295 541.217 610.758 539.41 602.065C543.729 595.518 552.138 595.302 559.552 594.298C566.93 593.26 573.42 591.393 572.731 580.889C565.142 590.516 560.214 591.793 555.672 591.807C551.103 591.826 546.702 590.645 540.532 595.306C539.312 588.407 541.355 585.126 543.954 582.319C546.553 579.512 549.734 577.153 550.296 572.094C546.064 568.406 538.535 574.823 536.92 567.982L546.901 558.304C544.68 548.103 542.168 543.894 539.741 542.745C537.286 541.601 534.857 543.51 532.198 545.726C529.536 547.922 526.561 550.441 522.996 550.564C519.455 550.661 515.352 548.355 509.815 541.144C501.285 557.273 510.34 560.47 521.195 567.353C517.31 577.997 512.297 583.816 506.927 587.252C506.592 587.459 506.257 587.666 505.897 587.898C505.514 588.155 505.135 588.432 504.727 588.713C503.961 589.227 503.162 589.727 502.388 590.202C500.835 591.133 499.232 591.953 497.645 592.709C494.496 594.197 491.136 595.506 487.869 596.836C484.629 598.161 481.213 599.622 477.953 601.433C474.694 603.245 471.427 605.46 468.219 608.408C461.874 614.229 456.026 622.848 450.848 636.323C448.055 635.226 446.196 634.166 445.024 633.071C443.8 632.005 443.296 630.919 443.296 629.752C443.294 627.399 445.316 624.746 447.772 621.505C452.588 614.98 459.349 606.442 452.627 591.922C453.126 581.425 454.997 574.498 457.983 569.844C459.463 567.52 461.228 565.763 463.213 564.384C465.118 563.042 467.219 562.103 469.445 561.361C473.914 559.954 478.872 558.832 482.953 558.829C487.16 558.439 491.093 557.399 494.383 554.134C490.019 542.466 484.583 531.232 478.406 520.346C488.54 507.198 496.894 505.827 504.423 504.679C508.294 504.054 511.79 503.583 515.611 501.54C519.433 499.497 523.396 495.977 527.842 489.485C523.349 485.648 519.706 483.472 516.624 482.232C513.438 481.052 510.73 480.823 507.869 480.987C502.076 481.409 495.665 483.382 483.148 483.023C486.286 488.496 488.178 492.788 489.229 496.201C490.201 499.649 490.325 502.179 489.862 504.081C488.94 507.904 485.883 509.132 482.227 510.399C478.57 511.665 474.496 512.874 471.78 516.408C469.037 519.948 467.706 525.803 469.009 536.486C467.707 534.29 466.672 532.282 465.796 530.485C464.867 528.718 464.116 527.116 463.476 525.634C462.194 522.669 461.271 520.197 460.081 517.838C457.496 513.261 453.932 508.998 442.301 503.314C450.595 503.544 452.68 497.258 455.146 492.023C457.613 486.788 460.488 482.599 470.505 487.435C466.421 485.669 462.947 484.345 459.931 483.292C456.819 482.339 454.194 481.652 451.869 481.167C447.272 480.166 443.728 480.103 440.388 479.898C433.468 479.739 426.881 479.212 408.27 474.97C400.534 484.144 408.408 493.809 411.834 501.76C413.529 505.789 414.278 509.282 411.939 511.796C410.745 513.078 408.903 514.006 405.853 514.831C404.386 515.02 402.479 516.061 400.34 516.807C399.26 517.201 398.117 517.568 396.887 517.932C395.636 518.341 394.298 518.746 392.897 519.124C388.451 518.013 387.183 514.382 387.687 511.225C387.757 510.849 387.844 510.409 387.957 510.105C388.054 509.865 388.159 509.663 388.292 509.456C388.557 509.041 388.953 508.701 389.392 508.433C390.274 507.917 391.479 507.719 392.803 508.12C391.031 507.063 389.48 506.244 388.117 505.648C386.711 505.122 385.545 504.79 384.533 504.648C382.537 504.359 381.266 504.812 380.535 505.801C380.17 506.296 379.919 506.929 379.778 507.681C379.737 507.91 379.716 508.095 379.674 508.325C379.641 508.593 379.618 508.919 379.58 509.309C379.511 509.986 379.478 510.697 379.453 511.446C379.351 514.443 379.528 517.968 379.722 521.731C380.576 536.868 381.372 555.959 371.648 562.691C365.487 563.447 361.639 560.528 360.101 556.266C358.503 552.138 359.219 546.686 362.313 543.016C351.68 551.154 348.855 561.448 346.817 570.46C344.832 579.441 343.703 587.047 337.718 590.443L342.626 595.064C339.845 599.878 340.891 614.816 339.526 628.543C338.859 635.412 337.674 642.003 335.401 646.898C333.132 651.812 329.762 655.114 324.507 655.912C316.868 656.358 314.213 652.156 313.337 645.974C312.472 639.849 313.572 631.948 313.34 626.242C306.848 633.219 301.402 635.101 296.271 634.326C291.167 633.546 286.409 630.123 281.985 626.633C283.449 632.72 283.183 639.711 280.19 641.993C276.401 647.711 274.499 649.656 273.089 649.11C271.707 648.559 270.763 645.548 269.87 641.762C268.142 634.2 266.461 623.51 265.258 624.452C264.303 625.627 264.505 627.377 264.871 629.517C265.617 633.291 266.085 635.653 266.38 637.143C267.532 642.969 268.623 650.236 269.84 658.141C272.381 673.91 274.763 692.526 280.102 703.276C278.391 700.92 276.334 698.712 275.529 696.256C274.673 693.831 275.644 690.984 278.728 688.724C279.445 697.03 280.705 707.2 282.036 714.66C283.431 722.148 284.814 726.943 286.837 724.732C285.469 712.553 285.915 699.451 288.863 689.334C291.759 679.247 297.233 672.391 303.163 672.666C304.326 679.717 303.034 685.765 301.073 691.363C299.085 696.966 296.44 702.175 294.466 707.413C292.493 712.651 291.27 717.881 291.498 723.126C291.761 728.404 293.411 733.528 297.51 739.616C294.854 738.332 292.055 740.716 289.866 743.844C287.614 746.945 286.132 750.717 285.269 751.914C284.581 743.462 283.801 739.815 283.107 738.645C282.408 737.455 282.077 738.708 282.32 739.645C282.508 740.593 283.075 741.266 282.939 739.261C282.827 737.232 281.955 732.678 279.9 722.585C281.063 726.418 282.568 729.338 283.753 731.819C284.963 734.275 285.989 736.244 286.926 737.909C288.801 741.239 290.33 743.41 291.873 745.941C293.416 748.472 295 751.356 296.928 755.983C298.881 760.585 301.21 766.942 304.051 776.035C303.137 768.492 300.319 752.496 296.61 737.26C292.955 722.154 288.334 707.722 285.744 707.068L286.982 720.198C282.008 703.985 282.833 702.595 284.709 702.566C286.529 702.407 289.373 703.614 287.321 690.464C291.141 705.235 294.203 713.982 297.119 719.942C298.575 722.912 300.009 725.183 301.457 727.089C302.933 728.989 304.343 730.561 305.364 732.209C306.301 733.874 306.992 735.608 306.448 737.687C306.218 738.718 305.654 739.815 304.6 740.928C303.635 742.045 302.12 743.169 300.194 744.113C296.46 746.16 291.044 747.312 285.816 748.387C281.868 749.208 277.893 750.035 273.949 750.875C269.293 751.917 264.624 753.042 259.93 754.333C266.922 758.22 267.013 762.043 264.658 766.23C262.362 770.426 257.7 774.948 256.116 780.109C264.472 778.456 270.324 776.875 274.767 775.634C277.045 775.002 278.745 774.525 280.707 774.057C281.73 773.814 282.645 773.613 283.62 773.42C284.094 773.326 284.539 773.238 285.013 773.144L285.681 773.012L286.023 772.985L286.135 772.963C287.47 772.839 288.723 773.174 290.441 774.102C292.127 775.015 294.285 776.559 297.067 778.623C296.864 785.643 294.716 788.542 292.169 790.735C291.55 791.26 290.874 791.796 290.227 792.327L289.755 792.722L289.507 792.932C289.507 792.932 289.419 793.07 289.036 793.186C287.905 793.611 286.753 794.08 285.657 794.538C284.589 794.991 283.441 795.479 282.524 795.963C281.69 796.429 280.86 796.916 280.065 797.435C278.48 798.493 277.005 799.669 275.692 801.076C273.675 805.075 274.37 806.828 276.834 807.286C278.064 807.505 279.753 807.412 281.718 807.104C282.784 806.933 283.62 806.768 285.036 806.468C286.425 806.173 287.862 805.828 289.466 805.45L290.652 805.155L291.257 804.995C291.508 804.946 291.421 804.943 291.5 804.907L292.11 804.625C292.533 804.421 292.959 804.236 293.382 804.032C294.231 803.643 295.112 803.267 295.988 803.013C297.712 802.511 299.301 802.498 300.498 804.012C298.04 807.093 296.181 809.11 294.829 810.906C294.139 811.807 293.577 812.622 293.102 813.44C293.282 813.766 291.589 814.423 290.627 814.976C289.55 815.531 288.557 816.069 287.591 816.602C285.525 817.715 284.354 818.671 282.892 819.765C281.485 820.847 280.058 821.975 278.487 823.251C275.342 825.784 271.613 828.734 266.173 832.546C255.26 828.149 250.824 824.018 246.983 819.669C243.217 815.265 240.032 810.726 232.917 804.753C211.697 805.754 196.457 807.14 183.951 809.172C171.468 811.18 161.79 813.758 152.451 816.149C143.137 818.515 134.109 820.724 123.162 821.422C117.68 821.803 111.729 821.713 105.042 821.125C101.707 820.8 98.1983 820.327 94.4562 819.7C90.9446 819.067 87.1087 818.258 83.7423 817.335C87.4773 818.366 90.8267 818.91 92.9634 819.03C95.128 819.145 96.5484 818.864 97.1961 818.333C98.5469 817.262 97.1719 815.14 96.1341 813.113C95.0683 811.091 94.1293 809.125 95.6845 808.354C96.4742 807.957 97.8177 807.872 100.199 808.205C102.664 808.522 106.087 809.293 110.909 810.551L100.076 808.169C96.6734 807.354 93.1753 806.498 90.2688 805.705C93.8705 804.892 98.1108 804.234 102.331 803.62C106.722 802.993 111.136 802.481 115.602 801.939C124.342 800.914 133.453 799.855 142.619 798.786C160.626 796.611 178.353 794.048 193.724 790.403C209.1 786.778 222.063 782.08 230.462 776.255C238.884 770.405 242.659 763.443 240.62 754.896C220.53 758.388 202.409 764.81 181.921 769.95C171.714 772.493 160.954 774.722 149.456 775.851C138.016 776.988 125.612 777.049 112.962 775.288L118.182 769.046C116.071 768.619 114.21 768.283 112.567 768.025C111.039 767.764 109.729 767.581 108.61 767.481C106.307 767.253 105.019 767.326 104.032 767.602C102.144 768.157 102.225 769.589 102.923 771.362C104.176 774.915 108.855 779.983 103.331 782.343C92.4263 783.696 86.7814 781.937 83.5092 779.004C80.3208 776.055 79.244 771.783 78.6278 768.083C77.952 764.375 77.4553 761.135 76.3005 760.418C75.6438 760.025 74.9781 760.318 74.0681 761.423C73.6307 761.992 73.2394 762.794 72.7471 763.816C72.5326 764.341 72.2346 764.883 72.0509 765.563L71.7333 766.591L71.5822 767.144L71.7987 766.337L71.3543 767.893L71.2974 768.045C71.2974 768.045 71.2876 768.289 71.2789 768.391C71.3287 768.643 71.2479 768.819 71.4168 769.088C71.554 769.342 71.6557 769.563 71.8208 769.812L72.5261 770.598C73.6943 771.674 75.6161 772.903 78.2956 774.304C72.9774 777.267 71.4063 779.127 70.5508 780.362C69.7511 781.586 70.0321 782.275 70.3667 783.234C71.2538 785.231 73.5286 788.683 65.992 799.889C61.9788 801.548 59.1037 802.962 58.2752 804.332L58.1817 804.592L58.1932 804.65L58.55 803.675L59.4812 801.358C60.5948 798.503 61.7087 795.648 62.8426 792.748C63.7937 790.388 64.6815 788 65.5376 785.598C66.2928 783.417 67.072 781.211 67.8511 779.005C68.5244 777.142 69.1345 775.252 69.7089 773.328L70.5364 770.489L71.2244 768.261C71.6805 766.763 72.077 765.256 72.4418 763.736C72.7691 762.464 73.0925 761.173 73.4159 759.882C73.7027 758.699 73.9541 757.483 74.1497 756.278L74.1913 756.048L75.9462 747.072L75.906 747.161L75.877 747.307L75.8231 747.62C75.7566 748.015 75.7142 748.385 75.6957 748.731C75.7177 748.988 75.6172 749.652 75.6103 750.055C75.5869 750.523 75.6358 750.915 75.6683 751.371C75.7247 753.412 76.291 755.251 76.8827 756.924C77.5424 758.503 78.2293 759.634 78.572 760.049C78.8866 760.469 78.7773 760.209 77.8769 759.462C77.012 758.749 75.288 757.642 73.2297 756.601C72.7151 756.34 72.113 756.077 71.5149 755.834C71.0041 755.593 70.4656 755.357 69.8434 755.139L68.8843 754.826L68.1037 754.538C67.5766 754.36 66.9658 754.2 66.3273 754.044C69.0715 754.748 70.7151 755.449 72.5211 756.238C74.1801 757.016 76.1866 758.087 77.6956 759.277C77.0957 758.732 76.0551 758.153 75.6202 757.857C75.1296 757.572 75.3196 757.655 76.3833 758.35C78.1707 759.485 78.8483 760.276 78.8129 760.243C78.8129 760.243 78.7379 760.157 78.5249 759.958C78.3003 759.7 77.901 759.438 77.4508 759.064C77.3126 758.951 76.874 758.635 76.0474 758.115C75.2486 757.589 73.9545 756.9 72.5173 756.219C71.6974 755.878 71.0599 755.582 70.3388 755.302C69.6177 755.022 68.7297 754.776 68.2899 754.601C67.204 754.233 66.2045 754.008 66.0537 753.978C68.6914 754.582 70.8381 755.485 73.1586 756.534C74.5555 757.304 73.7809 756.753 71.4478 755.787C69.2857 754.807 65.8406 753.779 63.5465 753.448C64.888 753.645 65.8953 753.908 67.9491 754.488C69.6773 755.031 72.0508 755.909 73.8988 756.911C75.8861 757.885 77.4115 759.011 78.1736 759.645C78.9751 760.331 78.907 760.425 78.431 759.775C78.4818 759.886 78.0932 759.239 77.7045 758.591C77.5319 758.304 77.4658 758.116 77.5713 758.356C77.7008 758.572 78.0768 759.302 78.5172 759.919C78.5096 759.88 78.2534 759.609 77.7199 758.669C77.4532 758.199 77.1799 757.549 76.8597 756.808C76.5873 756.017 76.315 755.226 76.1302 754.438C76.4519 756.064 74.8527 748.274 76.4753 755.596C76.179 754.83 76.0497 754.031 75.9588 753.426C75.8516 752.884 75.7559 752.4 75.7312 751.982C75.697 751.225 75.6686 750.788 75.64 750.351C75.6535 750.127 75.6355 749.889 75.6654 749.602C75.6916 749.295 75.7262 748.886 75.7321 748.623C75.7544 748.297 75.7818 747.849 75.9454 747.213L75.978 747.086L75.9741 747.067C77.5268 739.116 73.8599 757.884 74.2318 755.96L74.1612 756.336C74.0582 756.839 73.9832 757.336 73.884 757.859C73.6855 758.904 73.4351 759.979 73.1405 761.124C72.8008 762.478 72.4485 763.916 72.0481 765.403C71.6188 767.036 71.1137 768.725 70.5403 770.508C70.8452 769.563 70.6548 770.063 69.8185 773.004C69.3991 774.395 68.8091 776.241 68.054 778.422C67.1248 781.04 66.0735 784.064 64.8643 787.461C64.1872 789.304 63.4456 791.261 62.6282 793.273C62.4098 793.779 62.2194 794.28 62.0049 794.805C61.7616 795.476 61.4903 796.154 61.2469 796.825C60.7121 798.218 60.1572 799.656 59.5743 801.098C58.4125 804.003 57.1787 806.983 55.8727 810.037C54.2274 813.863 52.5695 817.771 50.8433 821.773C48.9354 826.173 46.9275 830.654 44.7882 835.2C41.9534 841.353 39.1062 847.588 36.187 853.898C33.0101 860.661 29.7255 867.466 26.3296 874.293C23.7432 879.652 21.1605 885.03 18.5817 890.428C15.8952 895.867 13.2369 901.301 10.5505 906.74L2.3405 923.028L0.25231 927.101L0.127283 927.347C0.127283 927.347 0.1147 927.43 0.122354 927.469L0.2854 928L0.342849 928.29C0.365821 928.406 0.563508 928.528 0.673904 928.647C0.926303 928.899 1.15081 929.156 1.37926 929.433C2.53099 930.573 4.2165 932.069 5.97862 933.953C6.41624 934.41 6.65127 934.866 7.10421 935.4C7.55333 935.915 7.97838 936.454 8.31613 936.991C9.02325 938.078 9.48355 939.234 9.66903 940.464C10.2151 942.93 9.80156 945.667 7.43927 948.649C12.5754 946.667 16.1756 943.36 20.0845 939.71C23.8463 936.05 27.353 931.977 32.1193 928.419C37.3303 924.914 43.5463 921.954 54.1024 920.449C64.4556 918.943 78.1606 918.725 97.5634 920.095C94.4202 915.327 86.9542 911.092 78.7083 907.011C74.5953 904.949 70.2751 903.008 66.1774 901.023C64.1547 900.015 62.1393 899.046 60.2471 898.114C59.313 897.635 58.3789 897.156 57.5043 896.685C56.6576 896.209 55.9019 895.755 55.1427 895.282C53.6556 894.349 52.2916 893.453 51.1301 892.556C49.9408 891.665 49.2835 890.83 48.5944 889.98C47.3672 888.312 46.9301 886.689 47.6331 885.122C48.336 883.555 50.1788 882.044 53.4161 880.558C55.0625 879.81 56.9432 879.076 59.67 878.376C62.3691 877.681 65.239 876.972 69.0385 876.281C56.1293 878.473 45.0995 880.655 36.5653 883.31C30.7725 880.071 30.7219 877.768 30.9576 875.448C31.3162 873.165 32.9529 871.051 34.387 868.937C35.1022 867.87 35.7616 866.815 36.2146 865.739C36.6637 864.645 36.819 863.528 36.835 862.439C36.8392 861.875 36.728 861.313 36.5574 860.744C36.3551 860.16 36.0376 859.579 35.9304 859.037C35.5056 857.915 34.9099 856.806 35.3137 855.921C35.2974 855.985 35.2416 855.996 35.2734 856.01C35.3924 856.026 35.5634 856.013 35.7267 855.96C35.8939 855.927 36.0811 855.85 36.2924 855.748C36.6267 855.682 37.0166 855.604 37.3787 855.533C37.7965 855.45 38.0914 855.331 38.6042 855.29L40.2744 855.101C41.257 854.946 42.8501 854.953 44.1609 854.995C44.5104 855.007 44.8044 855.029 45.1857 855.054L46.3687 855.182C47.1426 855.29 47.8887 855.404 48.5868 855.568C49.9512 855.881 51.6796 856.424 52.8269 857.102C53.9462 857.786 55.3179 858.721 56.0644 859.861C56.8704 861.008 57.2575 862.38 57.2133 864.058C58.1429 859.248 60.0773 855.567 62.6095 852.713C65.229 849.861 68.772 847.873 72.7793 846.476C81.1752 843.709 93.4619 843.49 105.746 843.111C130.384 842.56 156.688 841.217 161.386 827.515C165.972 833.286 172.524 836.555 181.915 837.794C191.283 839.058 203.525 838.325 219.409 835.806C216.847 840.999 219.784 845.748 220.275 850.277C220.73 854.773 218.707 859.176 205.172 863.322C194.46 862.284 185.12 862.765 175.607 862.374C166.129 862.017 156.444 860.755 145.993 856.065C147.11 874.872 169.335 878.801 197.828 876.964C212.07 876.097 227.758 873.757 243.429 871.481C259.128 869.199 274.818 867.02 289.793 866.49C285.472 865.716 282.688 864.517 282.909 862.563C283.007 861.598 283.874 860.421 285.625 859.028C286.5 858.332 287.622 857.567 288.991 856.733C289.718 856.308 290.304 855.91 291.309 855.43C292.37 854.938 293.486 854.436 294.706 853.872C296.193 853.779 297.735 853.675 299.305 853.566C299.56 853.536 299.591 853.549 299.599 853.588L299.694 853.63L299.888 853.732L300.272 853.918C300.783 854.159 301.325 854.413 301.895 854.662C303.004 855.147 304.169 855.62 305.266 856.047C307.497 856.933 309.356 857.551 310.38 858.635C311.433 859.714 311.767 861.398 312.036 864.221C312.242 867.016 312.435 870.92 312.564 876.104C312.981 872.361 311.497 868.813 310.077 865.293L305.716 854.369C306.843 865.329 307.326 861.191 308.147 865.634L304.018 858.366C304.558 865.339 305.465 870.067 306.367 874.776C307.306 879.518 308.287 884.332 309.252 891.986L307.06 886.908L309.459 903.128C308.606 897.645 307.385 892.496 306.825 891.862C306.565 891.572 306.559 892.418 306.992 895.047C308.052 901.133 308.925 906.13 309.428 908.967C309.228 903.274 308.28 885.319 308.991 871.36C309.352 864.41 310.235 858.483 311.871 855.927C313.479 853.376 315.948 854.154 318.533 860.924C317.838 876.428 316.569 879.234 315.19 880.895C313.807 882.536 312.123 883.091 312.039 893.345C313.027 898.339 314.107 895.168 315.412 894.447C316.685 893.713 317.995 895.505 317.615 910.263C319.692 901.304 322.594 883.352 325.976 863.876C329.398 844.454 333.026 823.441 338.066 809.129C342.885 809.201 341.804 815.73 339.619 823.263C337.378 830.806 334.305 839.56 333.752 843.934C334.566 845.12 338.31 832.01 341.568 824.044C344.778 815.987 347.386 813.077 343.687 833.44C347.879 823.318 352.529 812.301 355.552 802.27C358.598 792.213 360.037 782.958 357.503 776.44C360.182 777.841 364.301 775.839 368.495 772.314C372.702 768.706 376.983 763.574 379.779 757.812C375.213 767.646 373.065 773.904 372.091 778.199C371.118 782.495 371.351 784.843 371.732 787.06C372.514 791.451 373.915 795.317 367.83 812.25C369.397 817.974 371.61 825.501 375.892 827.248C380.265 829.018 387.243 825.224 400.523 809.401C392.558 821.517 384.684 833.795 376.932 846.251C379.007 846.645 381.125 847.111 383.182 847.709C380.265 854.321 377.587 858.632 375.277 861.583C372.966 864.534 371.016 866.087 369.412 866.907C366.174 868.533 364.079 867.158 362.692 867.171C363.661 872.068 364.892 874.781 366.446 876.927C367.996 879.054 369.836 880.601 371.654 882.916C374.002 878.691 376.591 875.101 379.56 871.235C382.528 867.369 385.86 863.29 389.545 857.774C398.673 849.492 397.526 855.692 398.424 858.33C398.708 859.179 399.221 859.722 400.342 859.54C394.086 867.415 387.779 873.571 384.852 873.989C386.777 874.212 388.742 874.487 390.781 874.847C382.003 883.584 377.947 888.389 374.368 891.953C370.801 895.576 367.642 897.89 361.186 902.567C363.419 901.562 365.726 900.643 368.084 899.834C366.764 903.696 363.045 906.986 358.964 910.207C354.876 913.389 350.554 916.558 347.558 919.263L346.411 925.021C351.867 921.145 355.878 917.576 359.309 914.584C362.772 911.606 365.583 909.28 369.496 908.726C366.17 913.126 364.248 916.141 363.298 918.36C363.181 918.645 363.088 918.905 362.995 919.165L362.892 919.527L362.908 919.604L362.86 919.654C362.867 919.693 363.037 919.82 363.112 919.906L364.252 920.987C365.811 922.429 367.342 923.876 368.901 925.317L371.293 927.459C371.435 927.592 371.846 927.913 372.189 928.186L373.248 929.003L375.369 930.655C386.779 939.459 399.134 947.635 412.572 955.133C439.399 970.179 470.16 982.879 505.742 992.874C541.172 1002.84 582.225 1010.06 628.172 1012.62C586.2 1005.58 552.041 993.991 524.018 980.649C533.944 983.713 542.678 985.726 551.053 986.805C555.157 987.36 558.989 987.708 562.555 987.888C566.094 988.072 569.424 988.077 572.687 987.894C585.581 987.233 594.216 984.358 601.093 980.644C615.027 973.1 620.893 962.667 636.392 956.885C641.614 957.239 646.996 957.522 652.505 957.719C655.273 957.815 657.986 957.922 660.911 957.926C663.859 957.906 666.811 957.905 669.787 957.88C675.763 957.803 681.812 957.652 688.032 957.347C694.412 956.969 700.856 956.479 707.364 955.875C713.797 955.326 720.55 954.493 727.335 953.532C734.116 952.552 740.842 951.584 747.709 950.305C761.464 947.704 775.237 944.758 788.686 941.051C802.304 937.471 815.085 933.313 827.657 928.975C833.795 926.795 839.716 924.537 845.605 922.265C848.53 921.103 851.431 919.966 854.332 918.829C857.082 917.661 859.836 916.513 862.531 915.356C867.947 913.037 873.273 910.696 878.427 908.369C883.383 906.061 888.227 903.775 892.932 901.516C902.565 896.955 910.754 892.7 918.893 888.636C905.839 901.798 896.437 911.624 892.894 918.58C891.148 922.043 890.571 924.832 891.449 926.932C892.328 929.031 894.602 930.431 898.216 931.144C905.274 932.583 917.374 931.275 933.315 926.854C940.967 924.716 949.487 921.843 958.685 918.153C967.774 914.504 976.976 910.249 986.82 905.144C991.422 901.779 995.562 898.567 999.558 895.362C1003.48 892.213 1007.39 889.025 1010.6 886.096C1017.2 880.206 1023.14 874.545 1027.93 869.373C1032.7 864.225 1036.81 859.39 1040.29 854.88C1043.61 850.442 1046.35 846.319 1048.66 842.483C1057.64 827.15 1059.18 816.647 1058.73 807.805C1058.34 798.953 1055.72 791.707 1054.65 782.929C1053.43 774.139 1053.6 763.906 1056.76 748.821C1060.3 755.34 1063.56 759.343 1066.84 761.148C1070.09 762.958 1073.39 762.545 1076.69 760.466C1078.34 759.435 1079.99 757.982 1081.63 756.189C1082.44 755.305 1083.26 754.318 1084.06 753.274C1084.87 752.249 1085.7 751.038 1086.37 750.04C1089.17 745.868 1091.88 740.705 1094.24 735.37C1098.89 724.776 1102.28 713.404 1105.72 705.604C1107.44 701.724 1109.33 698.573 1111.59 696.698C1112.79 695.556 1113.82 695.673 1115.15 695.511C1116.47 695.432 1117.96 695.499 1119.67 695.702L1120.19 691.738C1120.33 690.825 1120.23 691.066 1120.2 690.872L1120.07 690.535C1119.87 690.092 1119.64 689.655 1119.31 689.196C1118.7 688.292 1117.82 687.34 1116.78 686.339C1114.71 684.355 1112.01 682.133 1109.25 679.743C1103.82 674.984 1098.25 669.169 1097.32 664.786C1093.47 663.597 1089.71 663.053 1085.9 662.359C1082.08 661.646 1078.18 660.79 1073.85 658.528C1068.97 655.049 1071.8 654.429 1077.21 655.45C1082.64 656.427 1090.69 658.918 1095.99 660.685C1092.76 657.683 1086.51 653.75 1078.79 649.244C1071.1 644.752 1061.95 639.745 1053.2 635.039C1059.83 640.003 1051.9 636.805 1036.43 629.709C1032.4 625.155 1040.09 627.596 1045.21 629.159C1050.24 630.616 1052.92 631.293 1037.88 621.678C1068.36 635.619 1056.53 635.467 1085.95 648.552C1086.13 647.129 1082.71 644.326 1076.94 640.338C1071.23 636.339 1063.2 631.189 1054.34 625.28C1074.27 635.315 1060.84 630.773 1076.23 637.2C1066.18 629.394 1055.1 620.785 1044.63 612.659C1033.24 603.669 1021.58 594.471 1013.36 587.57L1041.82 604.567C1037.51 599.928 1029.52 593.323 1014.53 582.069C1025.48 587.846 1034.2 594.91 1039.09 599.293C1039.15 597.833 1032.42 591.462 1025.47 584.25C1018.49 577.101 1011.54 569.164 1010.26 566.219C1019.69 573.505 1020.4 574.893 1020.62 576.016C1020.87 577.133 1020.81 577.97 1028.46 583.878C1030.27 583.501 1027.79 579.888 1024.24 574.818C1022.24 572.035 1020.2 569.22 1018.21 566.437C1016.23 563.489 1014.09 560.413 1012.46 557.559C1005.65 546.152 1005.52 538.135 1027.31 553.512C1031.25 558.185 1031.36 559.49 1030.62 559.959C1037.53 556.862 1039.92 550.214 1042.92 544.009C1045.81 537.884 1049.74 532.261 1057.02 533.252C1067 542.28 1069.74 544.414 1069.3 542.611C1068.82 540.794 1064.96 535.06 1060.52 528.519C1056.09 521.972 1051.07 514.578 1048.37 509.561C1045.59 504.599 1045.29 502.045 1049.61 505.293C1061.67 522.517 1068.98 532.093 1073.15 536.94C1077.3 541.831 1078.42 542.072 1078.58 540.994C1078.74 539.877 1077.94 537.441 1077.94 536.415C1077.91 535.375 1078.66 535.688 1081.53 539.647L1074.34 529.183C1068.9 519.558 1072 522.927 1077.63 530.623C1083.33 538.365 1091.52 550.361 1097.87 559.746C1102.35 565.295 1107.01 570.567 1110.78 572.779C1112.68 573.891 1114.45 574.205 1115.88 573.54C1117.39 572.819 1118.59 571.133 1119.43 568.09C1120.18 570.858 1121 573.654 1121.87 576.477C1123.42 572.892 1128.17 575.411 1132.89 577.294C1137.74 579.15 1142.51 580.72 1147.55 574.614C1147.97 577.871 1144.98 583.268 1150.57 586.084C1151.53 586.256 1152.5 586.306 1153.44 586.381L1154.87 586.421L1155.04 586.427L1156.46 586.146L1159.47 585.57L1165.49 584.379L1168.49 583.726L1169.99 583.428L1170.74 583.241L1171.79 582.993C1174.63 582.289 1177.47 581.567 1180.3 580.825C1186.08 579.319 1191.27 577.769 1196.73 576.105C1207.2 572.847 1217.23 569.273 1226.19 565.69C1244.3 558.486 1259.33 551.048 1271.53 544.39L1277.82 540.913C1279.1 540.217 1279.23 540.17 1279.65 539.966C1280.42 539.574 1281.18 539.182 1281.93 538.751C1287.78 535.382 1292.76 531.318 1297.04 526.629C1305.61 517.271 1311.34 505.256 1314.84 491.772C1315.82 488.419 1316.86 485.016 1318.4 481.675C1319.91 478.339 1322 475.028 1324.94 472.315C1327.8 469.535 1331.5 467.436 1335.28 466.206C1339.08 464.95 1342.91 464.555 1346.51 464.626C1353.76 464.822 1360.22 466.781 1366.29 469.502C1372.31 472.293 1378.35 475.584 1384.24 479.448C1389.8 483.153 1395.46 486.9 1401.3 490.775C1407.1 494.494 1412.73 498.51 1419.14 501.986C1421.74 503.384 1424.43 504.702 1427.3 505.763C1427.99 506.048 1428.74 506.283 1429.48 506.538L1430.04 506.71L1430.31 506.796L1430.38 506.824L1430.8 506.921L1431.68 507.109L1438.81 508.634L1445.99 510.091C1446.47 510.196 1447.55 510.365 1448.32 510.493L1450.86 510.896L1455.97 511.676C1459.37 512.19 1462.82 512.653 1466.26 513.098L1468.85 513.431L1471.74 513.724L1477.61 514.272C1492.79 515.653 1510.58 516.196 1529.75 515.238C1534.71 514.962 1539.67 514.603 1544.65 514.18C1549.66 513.733 1554.46 513.285 1559.9 512.512C1570.51 511.034 1581.01 509.36 1591.66 507.031C1602.39 504.627 1613.19 501.866 1623.61 498.677C1633.94 495.408 1644.16 491.776 1654.12 487.834C1674.85 479.407 1694.17 469.248 1710.91 458.493C1727.63 447.724 1741.54 436.564 1753.34 425.56C1765.22 414.481 1774.42 403.931 1782.36 393.61C1790.3 383.25 1796.44 373.486 1801.66 363.904C1806.89 354.322 1810.96 345.088 1814.28 335.944L1815.51 332.503C1815.94 331.312 1816.15 330.485 1816.49 329.451L1818.25 323.553C1819.38 319.608 1820.45 315.655 1821.41 311.724C1822.24 307.86 1822.92 304.023 1823.58 300.153L1824.49 294.361C1824.79 292.409 1825.03 290.513 1825.16 288.697C1825.47 285.014 1825.72 281.304 1825.92 277.624L1826.13 272.112L1826.06 266.897C1825.97 263.414 1825.84 259.941 1825.62 256.485C1825.55 254.707 1825.36 253.117 1825.18 251.503L1824.6 246.65C1821.3 220.773 1813.64 199.601 1805.89 182.51C1798.07 165.372 1789.99 151.623 1783.24 140.327L1774.14 125.373L1771.55 121.058L1770.48 119.158C1770.1 118.53 1769.71 117.883 1769.46 117.368C1768.93 116.287 1768.15 115.095 1767.81 114.276L1767.08 112.932C1766.82 112.481 1766.6 111.82 1766.35 111.267C1765.78 110.153 1765.32 108.997 1764.89 107.835C1764.34 106.696 1764.05 105.507 1763.64 104.321C1762.1 99.6168 1761.24 94.6977 1761.68 89.7243C1762.09 84.7756 1763.73 79.7449 1766.97 75.2405C1770.16 70.7277 1774.83 66.8076 1780.23 63.828C1785.63 60.829 1791.7 58.7234 1797.86 57.3838C1810.21 54.7183 1823 54.8815 1834.5 57.6758C1845.93 60.6221 1856.4 65.6912 1865.15 72.7303C1865.15 72.7303 1864.65 73.2913 1863.83 74.4187C1863.01 75.5462 1861.99 77.2376 1860.86 79.7528C1858.63 84.6808 1856.82 92.9821 1855.38 105.013C1855.04 107.977 1854.56 111.231 1854.26 114.529C1854.16 115.372 1854.1 116.21 1854.03 117.047L1853.96 117.686C1853.76 118.026 1853.24 118.612 1852.9 119.062C1852.13 120.038 1851.37 121.013 1850.61 121.988C1847.62 125.918 1844.77 129.942 1842.08 134.034C1839.39 138.127 1836.88 142.284 1834.5 146.496C1832.09 150.694 1829.66 154.936 1827.46 159.154C1823 167.619 1819.03 176.088 1815.42 184.305C1799.76 217.071 1789.23 245.906 1768.56 258.361L1769.03 258.209Z" fill="#D9D9D9"/>
</svg>
